<svg width="41" height="41" viewBox="0 0 41 41" fill="none" xmlns="http://www.w3.org/2000/svg">
<path fill-rule="evenodd" clip-rule="evenodd" d="M5.91498 0.884766C3.15355 0.884766 0.914978 3.12334 0.914978 5.88477V35.8848C0.914978 38.6462 3.15355 40.8848 5.91498 40.8848H20.7422V28.9202H15.6142V22.6447H20.7422V17.7006C20.7422 12.3283 23.9256 9.4054 28.5726 9.4054C30.7997 9.4054 32.7121 9.57751 33.2681 9.654V15.2675H30.0451C27.5178 15.2675 27.0294 16.509 27.028 18.3228V22.6462H32.7312L31.9501 28.9216H27.0294V40.8848H35.915C38.6764 40.8848 40.915 38.6462 40.915 35.8848V5.88477C40.915 3.12334 38.6764 0.884766 35.915 0.884766H5.91498Z" fill="#3298FF"/>
</svg>
