<svg width="41" height="41" viewBox="0 0 41 41" fill="none" xmlns="http://www.w3.org/2000/svg">
<path fill-rule="evenodd" clip-rule="evenodd" d="M5.91498 0.884766C3.15355 0.884766 0.914978 3.12334 0.914978 5.88477V35.8848C0.914978 38.6462 3.15355 40.8848 5.91498 40.8848H35.915C38.6764 40.8848 40.915 38.6462 40.915 35.8848V5.88477C40.915 3.12334 38.6764 0.884766 35.915 0.884766H5.91498ZM10.9598 6.80518H30.8692C33.1435 6.80518 34.9941 8.65579 34.9941 10.9301V30.8395C34.9941 33.1138 33.1435 34.9644 30.8692 34.9644H10.9598C8.68551 34.9644 6.8349 33.1138 6.8349 30.8395V10.9301C6.8349 8.65579 8.68551 6.80518 10.9598 6.80518ZM13.5447 20.8298C13.5447 24.924 16.8753 28.2546 20.9695 28.2546C25.0637 28.2546 28.3943 24.924 28.3943 20.8298C28.3943 16.7356 25.0637 13.405 20.9695 13.405C16.8753 13.405 13.5447 16.7356 13.5447 20.8298ZM26.7444 12.58C26.7444 13.9447 27.8546 15.055 29.2193 15.055C30.5839 15.055 31.6942 13.9447 31.6942 12.58C31.6942 11.2154 30.5839 10.1051 29.2193 10.1051C27.8546 10.1051 26.7444 11.2154 26.7444 12.58ZM28.395 12.58C28.395 12.1248 28.7647 11.755 29.22 11.755C29.6752 11.755 30.045 12.1248 30.045 12.58C30.045 13.0353 29.6752 13.405 29.22 13.405C28.7647 13.405 28.395 13.0353 28.395 12.58ZM20.9691 15.0549C17.7852 15.0549 15.1942 17.6459 15.1942 20.8298C15.1942 24.0137 17.7852 26.6046 20.9691 26.6046C24.153 26.6046 26.7439 24.0137 26.7439 20.8298C26.7439 17.6459 24.153 15.0549 20.9691 15.0549Z" fill="#3298FF"/>
</svg>
