<svg width="41" height="41" viewBox="0 0 41 41" fill="none" xmlns="http://www.w3.org/2000/svg">
<path fill-rule="evenodd" clip-rule="evenodd" d="M5.91498 0.884766C3.15355 0.884766 0.914978 3.12334 0.914978 5.88477V35.8848C0.914978 38.6462 3.15355 40.8848 5.91498 40.8848H35.915C38.6764 40.8848 40.915 38.6462 40.915 35.8848V5.88477C40.915 3.12334 38.6764 0.884766 35.915 0.884766H5.91498ZM31.8393 11.7083C33.0352 12.0304 33.9783 12.9732 34.3 14.1694C34.8982 16.3541 34.8752 20.9078 34.8752 20.9078C34.8752 20.9078 34.8752 25.4384 34.3004 27.6232C33.9783 28.8192 33.0354 29.7621 31.8393 30.084C29.6544 30.6591 20.9152 30.6591 20.9152 30.6591C20.9152 30.6591 12.1986 30.6591 9.99091 30.0612C8.79479 29.7391 7.85207 28.7962 7.52999 27.6002C6.95502 25.4384 6.95502 20.8848 6.95502 20.8848C6.95502 20.8848 6.95502 16.3541 7.52999 14.1694C7.85173 12.9734 8.81779 12.0074 9.99074 11.6856C12.1756 11.1105 20.9148 11.1105 20.9148 11.1105C20.9148 11.1105 29.6544 11.1105 31.8393 11.7083ZM18.1323 16.6991V25.0705L25.3997 20.8848L18.1323 16.6991Z" fill="#3298FF"/>
</svg>
