<svg width="4" height="1" viewBox="0 0 4 1" fill="none" xmlns="http://www.w3.org/2000/svg">
<mask id="mask0" mask-type="alpha" maskUnits="userSpaceOnUse" x="0" y="0" width="4" height="1">
<rect width="4" height="1" fill="#C4C4C4"/>
</mask>
<g mask="url(#mask0)">
<path fill-rule="evenodd" clip-rule="evenodd" d="M-168 0.5C-168 0.223858 -167.776 1.95703e-08 -167.5 4.37114e-08L-166.997 8.76769e-08C-166.721 1.11818e-07 -166.497 0.223858 -166.497 0.5C-166.497 0.776142 -166.721 1 -166.997 1L-167.5 1C-167.776 1 -168 0.776142 -168 0.5ZM-164.48 0.5C-164.48 0.223858 -164.256 3.27329e-07 -163.98 3.5147e-07L-162.974 4.39401e-07C-162.698 4.63542e-07 -162.474 0.223858 -162.474 0.5C-162.474 0.776143 -162.698 1 -162.974 1L-163.98 1C-164.256 1 -164.48 0.776143 -164.48 0.5ZM-160.456 0.500001C-160.456 0.223858 -160.233 6.79053e-07 -159.956 7.03194e-07L-158.951 7.91125e-07C-158.674 8.15266e-07 -158.451 0.223858 -158.451 0.500001C-158.451 0.776143 -158.674 1 -158.951 1L-159.956 1C-160.233 1 -160.456 0.776143 -160.456 0.500001ZM-156.433 0.500001C-156.433 0.223859 -156.209 1.03078e-06 -155.933 1.05492e-06L-154.927 1.14285e-06C-154.651 1.16699e-06 -154.427 0.223859 -154.427 0.500001C-154.427 0.776144 -154.651 1 -154.927 1L-155.933 1C-156.209 1 -156.433 0.776143 -156.433 0.500001ZM-152.41 0.500001C-152.41 0.223859 -152.186 1.3825e-06 -151.91 1.40664e-06L-150.904 1.49457e-06C-150.628 1.51871e-06 -150.404 0.223859 -150.404 0.500002C-150.404 0.776144 -150.628 1 -150.904 1L-151.91 1C-152.186 1 -152.41 0.776144 -152.41 0.500001ZM-148.387 0.500002C-148.387 0.223859 -148.163 1.73423e-06 -147.887 1.75837e-06L-146.881 1.8463e-06C-146.605 1.87044e-06 -146.381 0.22386 -146.381 0.500002C-146.381 0.776144 -146.605 1 -146.881 1L-147.887 1C-148.163 1 -148.387 0.776144 -148.387 0.500002ZM-144.363 0.500002C-144.363 0.22386 -144.14 2.08595e-06 -143.863 2.11009e-06L-142.858 2.19802e-06C-142.581 2.22216e-06 -142.358 0.22386 -142.358 0.500002C-142.358 0.776145 -142.581 1 -142.858 1L-143.863 1C-144.14 1 -144.363 0.776144 -144.363 0.500002ZM-140.34 0.500002C-140.34 0.22386 -140.116 2.43767e-06 -139.84 2.46182e-06L-138.834 2.54975e-06C-138.558 2.57389e-06 -138.334 0.22386 -138.334 0.500003C-138.334 0.776145 -138.558 1 -138.834 1L-139.84 1C-140.116 1 -140.34 0.776145 -140.34 0.500002ZM-136.317 0.500003C-136.317 0.22386 -136.093 2.7894e-06 -135.817 2.81354e-06L-134.811 2.90147e-06C-134.535 2.92561e-06 -134.311 0.223861 -134.311 0.500003C-134.311 0.776145 -134.535 1 -134.811 1L-135.817 1C-136.093 1 -136.317 0.776145 -136.317 0.500003ZM-132.294 0.500003C-132.294 0.223861 -132.07 3.14112e-06 -131.794 3.16526e-06L-130.788 3.25319e-06C-130.512 3.27734e-06 -130.288 0.223861 -130.288 0.500003C-130.288 0.776146 -130.512 1 -130.788 1L-131.794 1C-132.07 1 -132.294 0.776145 -132.294 0.500003ZM-128.27 0.500003C-128.27 0.223861 -128.046 3.49285e-06 -127.77 3.51699e-06L-126.765 3.60492e-06C-126.488 3.62906e-06 -126.265 0.223861 -126.265 0.500004C-126.265 0.776146 -126.488 1 -126.765 1L-127.77 1C-128.046 1 -128.27 0.776146 -128.27 0.500003ZM-124.247 0.500004C-124.247 0.223861 -124.023 3.84457e-06 -123.747 3.86871e-06L-122.741 3.95664e-06C-122.465 3.98078e-06 -122.241 0.223862 -122.241 0.500004C-122.241 0.776146 -122.465 1 -122.741 1L-123.747 1C-124.023 1 -124.247 0.776146 -124.247 0.500004ZM-120.224 0.500004C-120.224 0.223862 -120 4.19629e-06 -119.724 4.22044e-06L-118.718 4.30837e-06C-118.442 4.33251e-06 -118.218 0.223862 -118.218 0.500004C-118.218 0.776147 -118.442 1 -118.718 1L-119.724 1C-120 1 -120.224 0.776147 -120.224 0.500004ZM-116.201 0.500005C-116.201 0.223862 -115.977 4.54802e-06 -115.701 4.57216e-06L-114.695 4.66009e-06C-114.419 4.68423e-06 -114.195 0.223862 -114.195 0.500005C-114.195 0.776147 -114.419 1 -114.695 1L-115.701 1C-115.977 1 -116.201 0.776147 -116.201 0.500005ZM-112.177 0.500005C-112.177 0.223863 -111.953 4.89974e-06 -111.677 4.92388e-06L-110.672 5.01181e-06C-110.395 5.03596e-06 -110.172 0.223863 -110.172 0.500005C-110.172 0.776147 -110.395 1.00001 -110.672 1.00001L-111.677 1C-111.953 1 -112.177 0.776147 -112.177 0.500005ZM-108.154 0.500005C-108.154 0.223863 -107.93 5.25147e-06 -107.654 5.27561e-06L-106.648 5.36354e-06C-106.372 5.38768e-06 -106.148 0.223863 -106.148 0.500005C-106.148 0.776148 -106.372 1.00001 -106.648 1.00001L-107.654 1.00001C-107.93 1.00001 -108.154 0.776148 -108.154 0.500005ZM-104.131 0.500006C-104.131 0.223863 -103.907 5.60319e-06 -103.631 5.62733e-06L-102.625 5.71526e-06C-102.349 5.7394e-06 -102.125 0.223863 -102.125 0.500006C-102.125 0.776148 -102.349 1.00001 -102.625 1.00001L-103.631 1.00001C-103.907 1.00001 -104.131 0.776148 -104.131 0.500006ZM-100.108 0.500006C-100.108 0.223864 -99.8837 5.95491e-06 -99.6076 5.97906e-06L-98.6018 6.06699e-06C-98.3256 6.09113e-06 -98.1018 0.223864 -98.1018 0.500006C-98.1018 0.776148 -98.3256 1.00001 -98.6018 1.00001L-99.6076 1.00001C-99.8837 1.00001 -100.108 0.776148 -100.108 0.500006ZM-96.0843 0.500006C-96.0843 0.223864 -95.8605 6.30664e-06 -95.5843 6.33078e-06L-94.5785 6.41871e-06C-94.3024 6.44285e-06 -94.0785 0.223864 -94.0785 0.500006C-94.0785 0.776149 -94.3024 1.00001 -94.5785 1.00001L-95.5843 1.00001C-95.8605 1.00001 -96.0843 0.776149 -96.0843 0.500006ZM-92.0611 0.500007C-92.0611 0.223864 -91.8372 6.65836e-06 -91.5611 6.6825e-06L-90.5553 6.77043e-06C-90.2791 6.79458e-06 -90.0553 0.223864 -90.0553 0.500007C-90.0553 0.776149 -90.2791 1.00001 -90.5553 1.00001L-91.5611 1.00001C-91.8372 1.00001 -92.0611 0.776149 -92.0611 0.500007ZM-88.0378 0.500007C-88.0378 0.223865 -87.8139 7.01009e-06 -87.5378 7.03423e-06L-86.532 7.12216e-06C-86.2559 7.1463e-06 -86.032 0.223865 -86.032 0.500007C-86.032 0.77615 -86.2559 1.00001 -86.532 1.00001L-87.5378 1.00001C-87.8139 1.00001 -88.0378 0.776149 -88.0378 0.500007ZM-84.0146 0.500007C-84.0146 0.223865 -83.7907 7.36181e-06 -83.5146 7.38595e-06L-82.5087 7.47388e-06C-82.2326 7.49802e-06 -82.0087 0.223865 -82.0087 0.500008C-82.0087 0.77615 -82.2326 1.00001 -82.5087 1.00001L-83.5146 1.00001C-83.7907 1.00001 -84.0146 0.77615 -84.0146 0.500007ZM-79.9913 0.500008C-79.9913 0.223865 -79.7674 7.71354e-06 -79.4913 7.73768e-06L-78.4855 7.82561e-06C-78.2093 7.84975e-06 -77.9855 0.223866 -77.9855 0.500008C-77.9855 0.77615 -78.2093 1.00001 -78.4855 1.00001L-79.4913 1.00001C-79.7674 1.00001 -79.9913 0.77615 -79.9913 0.500008ZM-75.968 0.500008C-75.968 0.223866 -75.7442 8.06526e-06 -75.468 8.0894e-06L-74.4622 8.17733e-06C-74.1861 8.20147e-06 -73.9622 0.223866 -73.9622 0.500008C-73.9622 0.776151 -74.1861 1.00001 -74.4622 1.00001L-75.468 1.00001C-75.7442 1.00001 -75.968 0.77615 -75.968 0.500008ZM-71.9448 0.500008C-71.9448 0.223866 -71.7209 8.41698e-06 -71.4448 8.44112e-06L-70.439 8.52906e-06C-70.1628 8.5532e-06 -69.939 0.223866 -69.939 0.500009C-69.939 0.776151 -70.1628 1.00001 -70.439 1.00001L-71.4448 1.00001C-71.7209 1.00001 -71.9448 0.776151 -71.9448 0.500008ZM-67.9215 0.500009C-67.9215 0.223866 -67.6977 8.76871e-06 -67.4215 8.79285e-06L-66.4157 8.88078e-06C-66.1396 8.90492e-06 -65.9157 0.223867 -65.9157 0.500009C-65.9157 0.776151 -66.1396 1.00001 -66.4157 1.00001L-67.4215 1.00001C-67.6977 1.00001 -67.9215 0.776151 -67.9215 0.500009ZM-63.8983 0.500009C-63.8983 0.223867 -63.6744 9.12043e-06 -63.3983 9.14457e-06L-62.3925 9.2325e-06C-62.1163 9.25664e-06 -61.8925 0.223867 -61.8925 0.500009C-61.8925 0.776152 -62.1163 1.00001 -62.3925 1.00001L-63.3983 1.00001C-63.6744 1.00001 -63.8983 0.776151 -63.8983 0.500009ZM-59.875 0.500009C-59.875 0.223867 -59.6512 9.47215e-06 -59.375 9.4963e-06L-58.3692 9.58423e-06C-58.0931 9.60837e-06 -57.8692 0.223867 -57.8692 0.50001C-57.8692 0.776152 -58.0931 1.00001 -58.3692 1.00001L-59.375 1.00001C-59.6512 1.00001 -59.875 0.776152 -59.875 0.500009ZM-55.8518 0.50001C-55.8518 0.223867 -55.6279 9.82388e-06 -55.3518 9.84802e-06L-54.346 9.93595e-06C-54.0698 9.96009e-06 -53.846 0.223868 -53.846 0.50001C-53.846 0.776152 -54.0698 1.00001 -54.346 1.00001L-55.3518 1.00001C-55.6279 1.00001 -55.8518 0.776152 -55.8518 0.50001ZM-51.8285 0.50001C-51.8285 0.223868 -51.6047 1.01756e-05 -51.3285 1.01997e-05L-50.3227 1.02877e-05C-50.0466 1.03118e-05 -49.8227 0.223868 -49.8227 0.50001C-49.8227 0.776153 -50.0466 1.00001 -50.3227 1.00001L-51.3285 1.00001C-51.6047 1.00001 -51.8285 0.776153 -51.8285 0.50001ZM-47.8053 0.500011C-47.8053 0.223868 -47.5814 1.05273e-05 -47.3053 1.05515e-05L-46.2995 1.06394e-05C-46.0233 1.06635e-05 -45.7995 0.223868 -45.7995 0.500011C-45.7995 0.776153 -46.0233 1.00001 -46.2995 1.00001L-47.3053 1.00001C-47.5814 1.00001 -47.8053 0.776153 -47.8053 0.500011ZM-43.782 0.500011C-43.782 0.223869 -43.5582 1.08791e-05 -43.282 1.09032e-05L-42.2762 1.09911e-05C-42.0001 1.10153e-05 -41.7762 0.223869 -41.7762 0.500011C-41.7762 0.776153 -42.0001 1.00001 -42.2762 1.00001L-43.282 1.00001C-43.5582 1.00001 -43.782 0.776153 -43.782 0.500011ZM-39.7588 0.500011C-39.7588 0.223869 -39.5349 1.12308e-05 -39.2588 1.12549e-05L-38.2529 1.13428e-05C-37.9768 1.1367e-05 -37.7529 0.223869 -37.7529 0.500011C-37.7529 0.776154 -37.9768 1.00001 -38.2529 1.00001L-39.2588 1.00001C-39.5349 1.00001 -39.7588 0.776154 -39.7588 0.500011ZM-35.7355 0.500012C-35.7355 0.223869 -35.5116 1.15825e-05 -35.2355 1.16066e-05L-34.2297 1.16946e-05C-33.9536 1.17187e-05 -33.7297 0.223869 -33.7297 0.500012C-33.7297 0.776154 -33.9536 1.00001 -34.2297 1.00001L-35.2355 1.00001C-35.5116 1.00001 -35.7355 0.776154 -35.7355 0.500012ZM-31.7122 0.500012C-31.7122 0.22387 -31.4884 1.19342e-05 -31.2122 1.19584e-05L-30.2064 1.20463e-05C-29.9303 1.20704e-05 -29.7064 0.22387 -29.7064 0.500012C-29.7064 0.776154 -29.9303 1.00001 -30.2064 1.00001L-31.2122 1.00001C-31.4884 1.00001 -31.7122 0.776154 -31.7122 0.500012ZM-27.689 0.500012C-27.689 0.22387 -27.4651 1.22859e-05 -27.189 1.23101e-05L-26.1832 1.2398e-05C-25.907 1.24222e-05 -25.6832 0.22387 -25.6832 0.500012C-25.6832 0.776155 -25.907 1.00001 -26.1832 1.00001L-27.189 1.00001C-27.4651 1.00001 -27.689 0.776155 -27.689 0.500012ZM-23.6657 0.500013C-23.6657 0.22387 -23.4419 1.26377e-05 -23.1657 1.26618e-05L-22.1599 1.27497e-05C-21.8838 1.27739e-05 -21.6599 0.22387 -21.6599 0.500013C-21.6599 0.776155 -21.8838 1.00001 -22.1599 1.00001L-23.1657 1.00001C-23.4419 1.00001 -23.6657 0.776155 -23.6657 0.500013ZM-19.6425 0.500013C-19.6425 0.223871 -19.4186 1.29894e-05 -19.1425 1.30135e-05L-18.1367 1.31015e-05C-17.8605 1.31256e-05 -17.6367 0.223871 -17.6367 0.500013C-17.6367 0.776156 -17.8605 1.00001 -18.1367 1.00001L-19.1425 1.00001C-19.4186 1.00001 -19.6425 0.776155 -19.6425 0.500013ZM-15.6192 0.500013C-15.6192 0.223871 -15.3954 1.33411e-05 -15.1192 1.33653e-05L-14.1134 1.34532e-05C-13.8373 1.34773e-05 -13.6134 0.223871 -13.6134 0.500013C-13.6134 0.776156 -13.8373 1.00001 -14.1134 1.00001L-15.1192 1.00001C-15.3954 1.00001 -15.6192 0.776156 -15.6192 0.500013ZM-11.596 0.500014C-11.596 0.223871 -11.3721 1.36928e-05 -11.096 1.3717e-05L-10.0902 1.38049e-05C-9.81403 1.38291e-05 -9.59016 0.223871 -9.59016 0.500014C-9.59016 0.776156 -9.81403 1.00001 -10.0902 1.00001L-11.096 1.00001C-11.3721 1.00001 -11.596 0.776156 -11.596 0.500014ZM-7.57272 0.500014C-7.57272 0.223872 -7.34886 1.40446e-05 -7.07272 1.40687e-05L-6.06691 1.41566e-05C-5.79077 1.41808e-05 -5.56691 0.223872 -5.56691 0.500014C-5.56691 0.776157 -5.79077 1.00001 -6.06691 1.00001L-7.07272 1.00001C-7.34886 1.00001 -7.57272 0.776156 -7.57272 0.500014ZM-3.54947 0.500014C-3.54947 0.223872 -3.32561 1.43963e-05 -3.04947 1.44204e-05L-2.04366 1.45084e-05C-1.76752 1.45325e-05 -1.54366 0.223872 -1.54366 0.500015C-1.54366 0.776157 -1.76752 1.00001 -2.04366 1.00001L-3.04947 1.00001C-3.32561 1.00001 -3.54947 0.776157 -3.54947 0.500014ZM0.473785 0.500015C0.473785 0.223872 0.697647 1.4748e-05 0.973785 1.47722e-05L1.9796 1.48601e-05C2.25574 1.48842e-05 2.4796 0.223873 2.4796 0.500015C2.4796 0.776157 2.25574 1.00001 1.9796 1.00001L0.973785 1.00001C0.697647 1.00001 0.473785 0.776157 0.473785 0.500015ZM4.49704 0.500015C4.49704 0.223873 4.7209 1.50997e-05 4.99704 1.51239e-05L5.5 1.51679e-05C5.77614 1.5192e-05 6 0.223873 6 0.500015C6 0.776158 5.77614 1.00002 5.5 1.00002L4.99704 1.00002C4.7209 1.00002 4.49704 0.776157 4.49704 0.500015Z" fill="#5F6A71"/>
</g>
</svg>
