<svg width="31" height="9" viewBox="0 0 31 9" fill="none" xmlns="http://www.w3.org/2000/svg">
<path fill-rule="evenodd" clip-rule="evenodd" d="M26.8995 0.488489C27.0693 0.270764 27.3447 0.270764 27.5146 0.488489L30.3264 4.09275C30.3503 4.12338 30.3708 4.1567 30.388 4.19194C30.4026 4.20643 30.4167 4.22226 30.4301 4.23946C30.6 4.45718 30.6 4.81018 30.4301 5.02791L27.6183 8.63216C27.4485 8.84989 27.1731 8.84989 27.0032 8.63216C26.8334 8.41444 26.8334 8.06144 27.0032 7.84371L29.0368 5.23704H0.518799C0.242656 5.23704 0.0187988 5.01318 0.0187988 4.73704C0.0187988 4.4609 0.242656 4.23704 0.518799 4.23704H29.2088L26.8995 1.27694C26.7296 1.05921 26.7296 0.706213 26.8995 0.488489Z" fill="#86969F"/>
</svg>
